<?xml version="1.0" standalone="no"?><!DOCTYPE svg PUBLIC "-//W3C//DTD SVG 1.1//EN" "http://www.w3.org/Graphics/SVG/1.1/DTD/svg11.dtd"><svg t="1509366839625" class="icon" style="" viewBox="0 0 1024 1024" version="1.1" xmlns="http://www.w3.org/2000/svg" p-id="27507" xmlns:xlink="http://www.w3.org/1999/xlink" width="200" height="200"><defs><style type="text/css"></style></defs><path d="M953.436895 922.06812l-159.654439-164.914137c63.96826-73.276401 102.850305-168.989201 102.850305-273.671237 0-229.796727-186.950198-416.755115-416.7459-416.755115S63.123554 253.688067 63.123554 483.48377 250.091158 900.22967 479.887885 900.22967c111.826707 0 213.4248-44.35676 288.352728-116.293919l158.619291 163.844178a18.440175 18.440175 0 0 0 13.289007 5.633417c4.640248 0 9.263091-1.733438 12.855904-5.209529 7.347401-7.095525 7.528629-18.804678 0.43208-26.135697zM479.887885 863.252052c-209.41117 0-379.785688-170.365303-379.785688-379.768282 0-209.41117 170.374518-379.776473 379.785688-379.776473s379.768282 170.365303 379.768282 379.776473c-0.001024 209.401955-170.357112 379.768282-379.768282 379.768282z" fill="#01458e" p-id="27508"></path><path d="M349.217592 226.630873c-15.112547 8.39586-29.574928 18.092054-42.955061 28.817253-52.036924 41.673157-88.003968 99.081383-101.292976 161.654087a271.21596 271.21596 0 0 0-5.886316 56.208232c0 7.655591 6.210888 13.866479 13.866479 13.866479 7.655591 0 13.866479-6.210888 13.866479-13.866479 0-16.990353 1.769274-33.9633 5.271985-50.447854 11.971267-56.315741 44.471435-108.082359 91.506679-145.76441 12.169901-9.759675 25.331947-18.579423 39.090918-26.216584 6.698258-3.719775 9.100293-12.160686 5.380518-18.858944-3.699298-6.692114-12.149423-9.102341-18.848705-5.39178z" fill="#01458e" p-id="27509"></path></svg>